<?xml version="1.0" encoding="UTF-8"?>
<!DOCTYPE svg PUBLIC "-//W3C//DTD SVG 1.1//EN" "http://www.w3.org/Graphics/SVG/1.1/DTD/svg11.dtd">
<!-- Creator: CorelDRAW 2019 (64-Bit) -->
<svg xmlns="http://www.w3.org/2000/svg" xml:space="preserve" width="35.2778mm" height="35.2778mm" version="1.1" style="shape-rendering:geometricPrecision; text-rendering:geometricPrecision; image-rendering:optimizeQuality; fill-rule:evenodd; clip-rule:evenodd"
viewBox="0 0 3527.78 3527.78"
 xmlns:xlink="http://www.w3.org/1999/xlink"
 xmlns:xodm="http://www.corel.com/coreldraw/odm/2003">
 <defs>
  <style type="text/css">
   <![CDATA[
    .fil0 {fill:#C7000B}
   ]]>
  </style>
 </defs>
 <g id="Слой_x0020_1">
  <metadata id="CorelCorpID_0Corel-Layer"/>
  <g id="_942268000">
   <path class="fil0" d="M1763.89 0c-974.17,0 -1763.89,789.72 -1763.89,1763.89 0,974.17 789.71,1763.89 1763.89,1763.89 974.17,0 1763.89,-789.72 1763.89,-1763.89 0,-974.17 -789.72,-1763.89 -1763.89,-1763.89zm0 3338.79c-868.47,0 -1574.91,-706.43 -1574.91,-1574.9 0,-868.46 706.44,-1574.9 1574.91,-1574.9 868.46,0 1574.9,706.44 1574.9,1574.9 0,868.47 -706.44,1574.9 -1574.9,1574.9z"/>
   <path class="fil0" d="M1465.16 846.29c-27.47,-19.4 -63.63,-21.8 -93.61,-6.05 -29.86,15.5 -48.64,46.37 -48.64,80.01l0 1687.16c0,33.77 18.78,64.76 48.64,80.26 13.1,6.93 27.34,10.33 41.83,10.33 18.14,0 36.28,-5.54 51.78,-16.38l1204.99 -843.64c24.31,-17.01 38.68,-44.61 38.68,-74.09 0,-29.48 -14.37,-57.07 -38.68,-73.96l-1204.99 -843.64z"/>
  </g>
 </g>
</svg>
